<?xml version="1.0" standalone="no"?>
<!DOCTYPE svg PUBLIC "-//W3C//DTD SVG 20010904//EN"
 "http://www.w3.org/TR/2001/REC-SVG-20010904/DTD/svg10.dtd">
<svg version="1.0" xmlns="http://www.w3.org/2000/svg"
 width="256.000000pt" height="256.000000pt" viewBox="0 0 256.000000 256.000000"
 preserveAspectRatio="xMidYMid meet">

<g transform="translate(0.000000,256.000000) scale(0.100000,-0.100000)"
fill="#000000" stroke="none">
<path d="M20 2540 c-20 -20 -20 -33 -20 -1258 0 -1232 0 -1238 20 -1260 l21
-22 1239 0 c1227 0 1240 0 1260 20 20 20 20 33 20 1260 0 1227 0 1240 -20
1260 -20 20 -33 20 -1260 20 -1227 0 -1240 0 -1260 -20z m580 -485 c184 -114
339 -211 344 -215 5 -5 1 -42 -9 -85 -9 -42 -14 -82 -12 -89 6 -16 336 -210
357 -210 21 0 351 194 357 210 3 7 -3 47 -12 89 -10 43 -14 80 -9 85 11 10
735 460 740 460 2 0 4 -52 4 -116 l0 -116 -111 -178 -111 -178 -375 -217 -375
-217 -54 53 -54 53 -54 -53 -54 -53 -375 216 -376 217 -110 178 -111 178 0
117 0 118 33 -19 c17 -11 183 -113 367 -228z m1263 34 c-7 -7 -85 -57 -175
-113 -157 -98 -163 -103 -159 -131 9 -69 13 -65 -122 -128 l-127 -60 -128 59
c-136 65 -133 62 -121 134 4 22 -11 34 -159 126 -90 56 -168 106 -175 113 -8
8 141 11 583 11 442 0 591 -3 583 -11z m398 -1087 l-100 -138 -268 -156 c-147
-85 -345 -195 -440 -244 l-172 -89 -158 78 c-87 43 -285 153 -441 245 l-283
166 -99 140 -100 139 0 255 c0 139 4 252 8 250 5 -1 50 -46 100 -99 l92 -96
44 -218 c25 -120 48 -221 53 -226 4 -4 141 -65 303 -135 162 -70 300 -131 306
-136 6 -4 46 -68 90 -143 43 -74 81 -135 84 -135 3 0 40 61 83 135 43 73 84
138 90 143 7 4 145 66 307 136 162 70 298 131 302 134 4 4 25 95 48 202 22
107 42 205 45 218 3 13 49 69 103 126 l97 104 3 -259 2 -258 -99 -139z m-1648
509 c4 -4 0 -25 -9 -46 -66 -159 137 -281 248 -150 10 11 17 26 18 33 0 6 2
12 4 12 9 0 132 -76 135 -83 5 -14 -83 -117 -99 -117 -8 0 -101 20 -206 46
l-191 46 -27 151 c-15 84 -30 165 -33 180 l-6 28 79 -47 c44 -25 82 -49 87
-53z m1467 -82 c-18 -96 -33 -175 -33 -176 -4 -4 -385 -93 -398 -93 -8 0 -35
27 -61 59 l-47 59 72 42 c47 27 73 37 76 29 2 -7 19 -28 37 -48 31 -34 36 -36
97 -36 56 0 69 4 92 25 53 48 70 127 40 184 -9 16 -13 32 -10 35 11 10 160 98
163 95 2 -1 -11 -80 -28 -175z m-693 -284 l29 -50 -65 -137 c-36 -76 -68 -138
-71 -138 -4 0 -36 62 -72 138 l-65 137 21 39 c12 21 43 62 69 91 l48 54 38
-42 c21 -23 52 -64 68 -92z"/>
</g>
</svg>
